<svg xmlns="http://www.w3.org/2000/svg" width="100" height="60" viewBox="0 0 100 60">
    <g fill="none" fill-rule="evenodd">
        <path fill="#000" d="M55.363 27.641h1.188l28.402 22.301h-5.048zM51.008 27.641h.99l22.86 22.301h-4.65zM39.27 27.641H38.08L9.68 49.942h5.048zM43.624 27.641h-.989L19.774 49.942h4.651zM0 52.771v5.411h6.045v-1.184H2.207v-1.053h3.531v-1H2.207v-.99h3.762v-1.184zM14.75 52.771l.132 4.155h-.088l-2.37-4.155h-3.73v5.411H10.9l-.133-4.156h.088l2.34 4.156h3.76v-5.41zM18.887 52.771v1.255h2.118v4.156h2.207v-4.156h2.228v-1.255zM27.392 52.771v5.411h6.046v-1.184H29.6v-1.053h3.53v-1H29.6v-.99h3.762v-1.184zM39.959 55.49c.948 0 .915-.23.915-.843 0-.483-.188-.62-.916-.62h-1.71v1.464h1.71zm-3.917-2.72H40.3c1.91.023 2.847.29 2.847 1.639 0 .902 0 1.428-1.566 1.666v.058c.903.022 1.488.346 1.488.96v1.089h-2.206v-.757c.023-.404-.242-.68-.904-.68h-1.71v1.437h-2.207V52.77zM49.204 55.542c.872-.022.993-.087.993-.786 0-.556-.133-.73-.993-.73h-1.511v1.516h1.51zm-3.718 2.64v-5.41h4.159c2.052 0 2.824.57 2.824 1.984 0 1.522-.518 2.04-2.824 2.04h-1.952v1.386h-2.207zM58.481 55.49c.95 0 .916-.23.916-.843 0-.483-.188-.62-.916-.62h-1.71v1.464h1.71zm-3.916-2.72h4.259c1.909.023 2.846.29 2.846 1.639 0 .902 0 1.428-1.567 1.666v.058c.904.022 1.49.346 1.49.96v1.089h-2.207v-.757c.022-.404-.242-.68-.905-.68h-1.71v1.437h-2.206V52.77zM64.053 58.182h2.207v-5.41h-2.207zM72.635 54.892c2.45.115 3.056.317 3.056 1.558 0 .895.055 1.775-3.586 1.775-2.107 0-3.508-.029-3.508-1.804h2.118c0 .563.31.621 1.39.621 1.037 0 1.38-.043 1.38-.498 0-.469-.122-.462-1.159-.505l-.486-.02c-2.04-.095-3.232-.088-3.232-1.639 0-1.55 1.335-1.652 3.497-1.652 1.81 0 3.354.021 3.354 1.515v.223h-2.118c0-.555-.353-.555-1.236-.555-1.19 0-1.29.16-1.29.462 0 .432.32.447.904.476l.916.043zM80.248 54.942h3.53v1.003h-3.53v1.053h3.839v1.183h-6.045v-5.41h5.968v1.183h-3.762zM90.507 54.892c2.45.115 3.056.317 3.056 1.558 0 .895.055 1.775-3.586 1.775-2.107 0-3.508-.029-3.508-1.804h2.118c0 .563.31.621 1.39.621 1.037 0 1.38-.043 1.38-.498 0-.469-.122-.462-1.159-.505l-.485-.02c-2.04-.095-3.233-.088-3.233-1.639 0-1.55 1.335-1.652 3.497-1.652 1.81 0 3.354.021 3.354 1.515v.223h-2.118c0-.555-.353-.555-1.236-.555-1.19 0-1.29.16-1.29.462 0 .432.32.447.904.476l.916.043zM16.896 27.529H0v22.413L26.412 31.89c-1.073-.065-10.893-6.025-9.516-4.361m2.307 1.072c.816 1.059 2.378 1.46 4.476 2.814L2.015 46.173v-16.63H19.39M93.68 27.597H60.88L93.68 49.942V27.597zm-2.016 2.015v16.52l-24.248-16.52h24.248z"/>
        <path fill="#EAB020" d="M17.386 1.448l-4.787-.005-4.773-.005-5.93 21.424 9.414.01.094-.33L17.238 1.97z"/>
        <path fill="#FEFEFE" d="M15.259 20v.037a16.974 16.974 0 0 0 0-.038M15.363 18.343a20.212 20.212 0 0 1 .134-.948l.058-.328a23.462 23.462 0 0 0-.059.329 17.62 17.62 0 0 0-.134.947 16.425 16.425 0 0 0 .001 0M15.268 20.538c.004.114.008.227.016.338v.007-.008a9.044 9.044 0 0 1-.016-.337"/>
        <path fill="#EAB020" d="M24.281 14.58s.706.015 1.604-.08c.758-.08 2.896-.906 4.04-3.27.267-.61.51-1.357.704-2.287l.006-.027a13.5 13.5 0 0 0 .091-.463 13.568 13.568 0 0 0 .185-1.56c.012-.22.017-.436.016-.646a8.358 8.358 0 0 0-.237-1.99 6.396 6.396 0 0 0-.228-.711 4.375 4.375 0 0 0-.525-.973c-.526-.723-1.23-1.123-2.028-1.123h-.44l-.659-.001h-.595l-2.513-.002-.34-.001h-.668l-.635-.001h-.153l-2.18-.003-1.832 6.573-1.832 6.572 8.22-.006zM88.503 11.338l-6.72-.006v-.002l1.836-6.686-8.005-.006-5.116 18.293 6.908.006c1.15 0 1.344-.75 1.668-2.024l1.556-5.367 6.529.006-2.022 7.422 7.582.008 5.003-18.325-7.453-.006-1.766 6.687zM70.9 14.316c.004-.237-.082-.798-.862-1.399-.809-.624-6.304-4.685-6.787-5.042l-.035-.027 4.626.005c2.467.003 4.211 2.228 4.211 2.228l.892-3.195c.102-.298.144-.548.142-.758-.019-1.187-1.5-1.147-2.375-1.147L57.08 4.966c-1.26 0-1.608.327-1.702.723-1.148 3.997-1.205 4.436-1.385 5.07a1.387 1.387 0 0 0-.07.405c.01.346.291.59 1.204 1.26 6.987 5.133 7.22 5.342 7.22 5.342h-.03l-4.94-.005c-2.547-.076-4.359-2.5-4.372-3.3l.001-.034c.001-.01 0-.02.002-.03l-1.517 5.678c-.109.425-.17.802-.167 1.128.01 1.151.813 1.694 3.096 1.695l12.926.012c1.288-.023 1.3-.816 1.625-1.745l1.917-6.732s.011-.043.012-.118M30.824 28.044a7.645 7.645 0 0 1-.406-1.06l-.054-.182a14.51 14.51 0 0 1-.231-.934l-.041-.194c-.107-.52-.203-1.064-.316-1.646a34.544 34.544 0 0 0-.088-.444 16.737 16.737 0 0 0-.513-1.93 14.565 14.565 0 0 0-.202-.561l-.106-.267a11.998 11.998 0 0 0-.337-.742c-.038-.078-.078-.154-.117-.229a9.848 9.848 0 0 0-.62-1.017 8.6 8.6 0 0 0-.39-.514 6.711 6.711 0 0 0-.265-.304 6.42 6.42 0 0 0-.267-.276 6.316 6.316 0 0 0-.401-.364c-1.601-1.345-3.118-1.345-3.118-1.345l-7.586.006a25.038 25.038 0 0 0-.268 1.354 21.112 21.112 0 0 0-.134.948 15.481 15.481 0 0 0-.1 1.319v.022c-.003.118-.004.236-.005.354 0 .076.002.151.003.227 0 .072 0 .143.003.215l.002.044a9.21 9.21 0 0 0 .018.351v.008c.19 2.844 1.4 4.785 3.265 6.539.303.284.619.544.944.787l.03.024c.662.49 1.363.895 2.08 1.232a15.486 15.486 0 0 0 2.727.968 19.167 19.167 0 0 0 2.113.418 24.603 24.603 0 0 0 1.451.161l.255.017a10.525 10.525 0 0 0 2.22-.113 9.68 9.68 0 0 0 1.39-.33 4.113 4.113 0 0 0 .217-.073 8.925 8.925 0 0 0 .386-.15c.047-.02.082-.037.102-.046l.003-.002a.151.151 0 0 0 .02-.01l-.064-.064a11.07 11.07 0 0 1-.242-.244 12.075 12.075 0 0 1-.223-.244l-.002-.002a6.762 6.762 0 0 1-.14-.163l-.004-.004a7.844 7.844 0 0 1-.508-.681 7.104 7.104 0 0 1-.481-.86M53.771 4.99l-4.046-.003-4.046-.003-1.075 3.836-2.052 7.305-.01.024a1.686 1.686 0 0 1-.021.083c-.594 2.112-1.873 3.04-3.262 2.739-.498-.11-.748-.408-.854-.713a1.144 1.144 0 0 1-.065-.348.902.902 0 0 1 .031-.284v-.001l.005-.027c.075-.308.227-.866.227-.866l.001-.001h.001l2.862-10.843s.047-.145.051-.318a.583.583 0 0 0-.051-.262l-.023-.041a.46.46 0 0 0-.142-.145.774.774 0 0 0-.244-.103 1.54 1.54 0 0 0-.369-.04l-6.79-.01-.011.042c-.172.709-2.549 10.47-3.364 13.716-.846 3.362 2.26 4.8 5.374 4.883h.123a5.57 5.57 0 0 0 .225-.008l.042-.001.001-.001.033-.001c.09-.004.178-.011.265-.018l.055-.004.224-.022.116-.015a8.12 8.12 0 0 0 .445-.07c.017-.002.033-.007.05-.01l.217-.043a9.997 9.997 0 0 0 .822-.211c.221-.067.43-.141.631-.218 1.5-.592 2.499-1.392 2.499-1.392v-.001l-.421 1.343 7.569.008h.001l4.969-17.93.007-.025z"/>
        <path fill="#000" d="M92.72 22.981l-7.583-.007 2.022-7.422-6.529-.006-1.556 5.367c-.324 1.275-.518 2.025-1.668 2.025l-6.908-.008 5.116-18.292 8.005.006-1.835 6.687 6.72.006 1.765-6.686 7.453.006-5.003 18.324zm-25.374-.069L54.42 22.9c-2.283-.002-3.086-.545-3.096-1.696-.003-.327.058-.702.168-1.129l1.516-5.676c-.002.009 0 .02-.002.03v.033c.012.799 1.825 3.223 4.372 3.3l4.938.006h.031s-.233-.21-7.22-5.343c-.913-.67-1.195-.915-1.204-1.259a1.345 1.345 0 0 1 .07-.406c.18-.634.237-1.073 1.385-5.07.094-.396.442-.723 1.703-.722l13.631.012c.875.001 2.356-.038 2.374 1.147.003.212-.039.462-.14.758l-.893 3.195s-1.744-2.225-4.21-2.227l-4.627-.004.035.025c.483.357 5.978 4.419 6.787 5.043.78.602.866 1.162.862 1.399a.61.61 0 0 1-.01.118l-1.919 6.732c-.324.93-.337 1.722-1.625 1.746zm-18.552.034l-7.569-.008.421-1.343s-.999.801-2.498 1.393c-.202.077-.41.15-.632.218a10.57 10.57 0 0 1-.822.211 7.562 7.562 0 0 1-.217.042c-.017.004-.033.009-.05.012a5.876 5.876 0 0 1-.445.069l-.116.015-.223.022-.056.004c-.087.007-.175.013-.265.018l-.033.001v.001l-.044.001c-.074.003-.148.007-.224.008h-.123c-3.114-.082-6.22-1.521-5.374-4.883.815-3.246 3.192-13.007 3.364-13.717l.011-.042 6.79.011c.146 0 .268.015.37.04a.87.87 0 0 1 .135.044.646.646 0 0 1 .19.127.422.422 0 0 1 .083.118.52.52 0 0 1 .051.262 1.3 1.3 0 0 1-.05.318l-2.863 10.843-.002.001s-.152.558-.227.865l-.005.028v.001a.898.898 0 0 0-.03.284c.002.11.022.229.064.348.106.305.356.604.854.713 1.39.302 2.67-.627 3.262-2.739l.021-.083.01-.024 2.052-7.305 1.075-3.836 4.046.003 4.046.004-.007.025-4.969 17.93zm-17.489 5.956a6.572 6.572 0 0 0 .512.687c.045.054.091.108.14.162l.002.003a9.184 9.184 0 0 0 .464.487l.065.064v.001l-.02.01-.003.001a4.247 4.247 0 0 1-.308.13 4.697 4.697 0 0 1-.285.103l-.113.037a9.847 9.847 0 0 1-2.646.452 9.076 9.076 0 0 1-.47.006 9.25 9.25 0 0 1-.748-.033 23.141 23.141 0 0 1-1.452-.161 21.467 21.467 0 0 1-1.572-.288 19.167 19.167 0 0 1-1.085-.28 15.4 15.4 0 0 1-2.182-.817 12.218 12.218 0 0 1-2.08-1.232l-.03-.025a10.552 10.552 0 0 1-.944-.788c-1.865-1.753-3.075-3.695-3.265-6.538 0-.003 0-.005-.002-.008-.007-.11-.012-.223-.016-.337v-.014a.677.677 0 0 1-.002-.045c-.003-.07-.003-.142-.004-.213v-.002l-.002-.226v-.001-.038c0-.104.002-.209.005-.316l.001-.021a16.425 16.425 0 0 1 .136-1.629 18.35 18.35 0 0 1 .153-.966c.061-.332.131-.674.211-1.026h.001l7.585-.006h.001s1.516 0 3.117 1.344a6.638 6.638 0 0 1 .67.641c.088.097.176.198.264.305.044.053.087.108.131.163a8.364 8.364 0 0 1 .512.732c.125.199.248.411.366.635a12.002 12.002 0 0 1 .762 1.799 15 15 0 0 1 .4 1.412c.04.169.078.341.114.518l.088.443c.113.582.21 1.128.316 1.647l.041.193a13.586 13.586 0 0 0 .285 1.117 7.54 7.54 0 0 0 .58 1.405c.093.171.194.342.307.513zm-19.902-6.36l-.093.329-9.415-.009 5.93-21.424 4.773.005 4.788.005-.148.521-5.835 20.573zm8.323-21.1l2.18.002h.152l.636.001.667.001h.341a2250.678 2250.678 0 0 0 3.108.003h1.099c.798 0 1.501.4 2.028 1.124.203.278.38.604.525.973a6.396 6.396 0 0 1 .228.71c.15.588.233 1.255.237 1.991a11.05 11.05 0 0 1-.073 1.324c-.032.287-.074.58-.128.881l-.01.055c-.026.14-.053.276-.08.408l-.007.028c-.195.93-.437 1.678-.704 2.286-1.144 2.364-3.282 3.191-4.04 3.271-.898.094-1.604.08-1.604.08l-8.219.006 1.832-6.572 1.832-6.572zm79.66 2.056l-10.095-.009-1.79 6.495-2.669-.002-1.333-.001 1.496-5.195.377-1.301-5.359-.004-5.36-.005-.452 1.38c-.212-.396-.609-1.368-2.18-1.384-.052-.001-.104 0-.157.001l-27.433-.031-.23.635-.87 2.39c.002-.009.286-.975-.08-1.812-.258-.589-.838-1.113-2.06-1.197a4.96 4.96 0 0 0-.353-.012h-.003l-8.253-.008h-.419a6.487 6.487 0 0 0-.59-1.282 5.147 5.147 0 0 0-.49-.68C29.87.06 28.403.024 28.304.023h-.006l-9.53-.01h-.01L10.54.004 6.856 0 6.31 1.969.112 24.322l12.42.013 1.076-4.201.07.627.15 1.363.037.341c.001.014.192 1.588 1.354 3.461.385.621.91 1.321 1.613 2.028l.003.002c.061.062.123.123.187.184l.003.003a18.191 18.191 0 0 0 .198.186c.338.31.713.619 1.127.92l.1.07c.083.084.222.177.401.276 1.01.666 2.228 1.281 3.703 1.771l.02.006c.134.045.267.088.398.129l.213.065.195.059.222.064.175.049.228.062.16.042.232.058.144.035.238.056.13.029.242.052.11.023a12.571 12.571 0 0 0 .29.056 16.27 16.27 0 0 0 2.771.289l.041.001.15.001.114-.001.073-.001a9.936 9.936 0 0 0 .558-.02 8.575 8.575 0 0 0 .301-.021l.066-.005c.076-.007.151-.014.225-.023l.066-.007.216-.026.065-.009a11.363 11.363 0 0 0 .47-.076l.068-.012.187-.038.067-.014.178-.041.068-.016.17-.043.067-.018.161-.045.066-.02.154-.047.065-.021.147-.049.063-.022.141-.052.06-.022.137-.054.044-.018c1.024-.419 1.686-.927 2.044-1.256a6.535 6.535 0 0 1-.692-.566 7.494 7.494 0 0 1-.878-.983l-.03-.041a3.045 3.045 0 0 1-.067-.091c-.669-.936-1.29-2.247-1.512-4.022l-.097-.775.278.133.427.203c.012.006.853.396 2.141.652l.006.001c.161.032.33.061.502.088l.008.001.241.034.042.005c.084.011.17.021.257.03l.002.001c.088.009.177.017.267.024l.056.004.215.014.07.003c.164.008.332.013.502.013h.08c.07-.001.137-.003.205-.006l.054-.003.168-.01.033-.003c.065-.005.13-.011.192-.018l.047-.006.15-.019a4.679 4.679 0 0 0 .257-.042l.141-.027.047-.009.163-.037a.036.036 0 0 0 .01-.002l.15-.037a2.47 2.47 0 0 1 .042-.012l.126-.035a.217.217 0 0 0 .024-.007l.14-.042.035-.012.106-.035.03-.01.122-.043.023-.009.095-.036.028-.011.104-.042.003-.001.093-.04.02-.008.08-.037.003-.001c.184-.084.287-.144.29-.146l.1-.059 13.622.008h.74l11.52.007H65.392l7.784.007 3.006.003 1.561.001h.109c.207 0 .4-.046.582-.128.837-.378 1.398-1.511 1.66-2.308.041-.127.076-.246.102-.351l.076-.259 1.323-4.519 3.84.003-2.065 7.567 8.013.007 2.204.003 5.804-20.931h-.006z"/>
    </g>
</svg>
