<svg xmlns="http://www.w3.org/2000/svg" width="140" height="24" viewBox="0 0 140 24">
    <path fill="#FFF" fill-rule="evenodd" d="M8.358 9.724c1.418 0 2.504-.266 2.776-.384.21-.148.302-.355.302-.769 0-2.867-2.203-4.759-4.918-4.759C3.198 3.812 0 6.65 0 10.906c0 3.842 2.625 6.443 6.307 6.443.935 0 2.564-.413 3.228-.768.362-.266 1.298-1.33 1.478-2.04l-.06-.117c-.544.295-1.418.945-2.414 1.743-.301.06-.543.089-.845.089-2.866 0-5.159-2.128-5.13-5.882 0-.207 0-.414.061-.65h5.733zm-5.763-.68c.06-1.33 1.056-4.7 3.742-4.7 1.9 0 2.654 2.099 2.654 3.637 0 .471-.09.916-.18 1.063H2.595zm13.517-4.08l.091-.856c-.664.03-1.177.09-1.87.09-.906 0-1.84-.06-2.806-.09l-.03.119c.904.413 1.628.71 2.172 1.004.483.68 1.388 2.247 3.228 5.586-1.51 2.365-2.082 3.193-2.958 4.404-.3.385-.572.592-1.055.798l-1.78.887v.119c.845-.03 1.78-.09 2.746-.09.603 0 1.448.06 1.81.09l.12-.119c-.452-.473-.784-.74-.995-1.123.633-1.242 1.086-2.04 2.414-4.315h.06c1.78 3.251 2.413 4.492 2.927 5.645 1.478 0 3.681-.148 4.647-.148l.09-.089-2.082-.886c-.332-.118-.633-.443-.996-1.005-.543-.887-2.203-3.695-3.228-5.587 1.237-1.862 1.75-2.66 2.685-3.871.845-.414 1.69-.74 3.018-1.3l.03-.119c-1.087.03-1.992.09-2.867.09-.392 0-.815-.06-1.297-.09.03.443.03.798-.03 1.271-.362.857-1.177 2.306-1.81 3.399h-.061l-2.173-3.813zm12.371-1.24c-.875.088-3.35.68-3.802.857l-.12.119 1.599.916v8.364c0 3.931-.091 7.27-.121 8.896l-1.66 1.005-.06.119c.966-.03 1.932-.09 2.897-.09 1.328 0 2.655.06 4.043.09l.12-.119-2.775-1.093c-.06-2.188-.121-4.789-.121-6.355l.06-.03c.785.444 2.052.946 2.445.946 2.836 0 7.271-2.216 7.271-7.418 0-4.138-3.228-6.09-5.552-6.09-.995 0-2.202.652-4.285 1.982h-.06l.121-2.099zm0 2.66C29.599 5.497 30.747 5.2 31.41 5.2c2.745 0 4.285 2.572 4.285 5.203 0 3.9-2.384 5.941-4.918 5.941-.937 0-1.78-.236-2.294-.532v-9.43zm19.34 3.34c1.418 0 2.505-.266 2.776-.384.212-.148.302-.355.302-.769 0-2.867-2.203-4.759-4.918-4.759-3.32 0-6.518 2.838-6.518 7.094 0 3.842 2.625 6.443 6.307 6.443.935 0 2.564-.413 3.228-.768.362-.266 1.298-1.33 1.479-2.04l-.061-.117c-.542.295-1.418.945-2.414 1.743-.301.06-.542.089-.844.089-2.867 0-5.16-2.128-5.13-5.882 0-.207 0-.414.06-.65h5.733zm-5.763-.68c.06-1.33 1.056-4.7 3.742-4.7 1.901 0 2.654 2.099 2.654 3.637 0 .471-.09.916-.18 1.063H42.06zM52.108 10.7c0 4.965 4.043 6.65 6.818 6.65.875 0 2.264-.296 2.747-.473.452-.295 1.568-1.685 1.78-2.393l-.03-.09c-.544.267-1.358.828-2.535 1.833-.211.06-.543.119-.845.119-3.198 0-5.37-2.571-5.37-5.912 0-3.014 1.659-5.97 5.28-5.97.633 0 1.025.059 1.266.177.333 1.567.694 2.749.966 3.281l.121-.06c.422-.768.844-2.127 1.056-2.984-.453-.384-2.052-1.065-3.742-1.065-3.65 0-7.512 2.217-7.512 6.858v.03zm16.02-6.502L68.25 0c-.392 0-1.266.503-1.568.976a25.138 25.138 0 0 0-.875 3.221h-1.54l-.422.59 1.932.386v7.832c0 1.862.15 2.512.663 3.162.604.71 1.63 1.182 2.716 1.182 1.478 0 2.685-.68 3.32-1.596l.059-.473-.09-.03c-.483.326-1.298.74-2.323.74-.755 0-1.207-.207-1.54-.443-.15-.148-.452-.562-.452-.946V5.173l3.982-.385.453-.59h-4.435zm11.346 5.41c0 2.925-.03 5.762-.122 6.294l-1.66 1.035-.028.117c.663-.028 1.9-.088 2.806-.088 1.327 0 2.473.06 3.107.088l.06-.117-1.72-.976c-.12-.886-.12-5.38-.12-9.191.905-.77 2.172-1.479 3.138-1.479 2.323 0 2.897 1.833 2.897 3.252 0 2.63-.03 5.526-.122 7.359l-1.418 1.035-.06.117c.785-.028 1.81-.088 2.776-.088.905 0 1.991.06 2.776.088l.09-.117-1.689-.976V9.458c0-1.123-.09-2.129-.18-2.601 1.115-1.064 2.17-1.567 3.408-1.567 2.384 0 2.806 2.099 2.806 3.458.03 3.607-.09 5.971-.18 7.124l-1.268 1.064-.03.117c.754-.028 1.72-.088 2.595-.088 1.116 0 2.202.06 3.289.088v-.117l-1.479-.799c-.362-.207-.574-.413-.574-.59V8.098c0-2.6-1.538-4.286-3.891-4.286-1.358 0-2.625.68-4.828 2.454-.573-1.566-1.87-2.454-3.5-2.454-1.268 0-2.745.946-4.646 2.424h-.03l.12-2.424c-.905.03-3.139.769-3.772 1.035l-.06.147 1.509.652v3.96zm28.09-5.795c-3.108 0-6.669 2.601-6.669 6.947 0 4.167 3.35 6.59 6.579 6.59 3.802 0 6.728-2.719 6.728-6.886 0-3.901-2.957-6.65-6.608-6.65h-.03zm.03.503c2.625 0 3.923 3.636 3.923 6.414 0 2.719-.935 6.118-3.682 6.118-2.715 0-4.254-3.458-4.254-6.414 0-2.6 1.116-6.118 3.983-6.118h.03zm7.754.562l1.479.975c0 1.626 0 5.29-.242 10.108l-1.719.976v.117c.603-.028 1.96-.088 2.806-.088 1.87 0 3.44.06 4.285.088v-.117l-2.807-.946V7.95c.785-1.743 1.81-2.807 2.837-2.807.24 0 .331.03.422.058.422 1.065.784 1.745 1.025 2.099l.152-.088c.483-1.065.875-2.542.905-3.074-.242-.177-.633-.326-1.177-.326-1.026 0-2.897.71-4.193 3.074h-.03c0-1.093-.152-2.66-.303-3.074-.785.03-2.897.769-3.35.946l-.09.119zm17.38 4.847c1.419 0 2.505-.266 2.776-.384.211-.148.302-.355.302-.769 0-2.867-2.203-4.759-4.919-4.759-3.319 0-6.516 2.838-6.516 7.094 0 3.842 2.625 6.443 6.305 6.443.936 0 2.565-.413 3.23-.768.361-.266 1.296-1.33 1.477-2.04l-.06-.117c-.543.295-1.418.945-2.413 1.743a4.09 4.09 0 0 1-.846.089c-2.866 0-5.16-2.128-5.129-5.882 0-.207 0-.414.06-.65h5.734zm-5.763-.68c.061-1.33 1.056-4.7 3.742-4.7 1.9 0 2.655 2.099 2.655 3.637 0 .471-.09.916-.18 1.063h-6.217zm11.497 4.966c-.483.265-1.117.946-1.51 1.537l-.06.236c.242.503.846 1.27 1.388 1.566l.182-.06c.422-.236 1.266-1.063 1.477-1.536l.061-.236c-.241-.561-.996-1.419-1.388-1.566l-.15.059z"/>
</svg>
