<svg xmlns="http://www.w3.org/2000/svg" width="18" height="18" viewBox="0 0 18 18">
    <path fill="none" fill-rule="evenodd" stroke="#FFF" stroke-linecap="round" stroke-linejoin="round" stroke-width="1.25" d="M11.28 16.793l.009.005a4.15 4.15 0 0 0 5.163-.566l.58-.581c.54-.54.54-1.416 0-1.957l-2.445-2.444a1.384 1.384 0 0 0-1.957 0 1.382 1.382 0 0 1-1.956 0L6.761 7.336a1.384 1.384 0 0 1 0-1.957 1.382 1.382 0 0 0 0-1.956L4.315.975a1.384 1.384 0 0 0-1.956 0l-.58.58a4.151 4.151 0 0 0-.568 5.163l.006.01A37.451 37.451 0 0 0 11.28 16.793z"/>
</svg>
