<svg xmlns="http://www.w3.org/2000/svg" width="12" height="12" viewBox="0 0 12 12">
    <path fill="none" fill-rule="evenodd" stroke="#FFF" stroke-linecap="round" stroke-linejoin="round" stroke-width="1.25" d="M7.52 11.195l.006.003a2.767 2.767 0 0 0 3.442-.377l.387-.387a.923.923 0 0 0 0-1.304L9.725 7.5a.923.923 0 0 0-1.305 0 .922.922 0 0 1-1.304 0L4.507 4.89a.923.923 0 0 1 0-1.304.922.922 0 0 0 0-1.304L2.877.65a.923.923 0 0 0-1.304 0l-.387.387a2.768 2.768 0 0 0-.378 3.442l.003.006a24.967 24.967 0 0 0 6.709 6.71z"/>
</svg>
