<svg xmlns="http://www.w3.org/2000/svg" xmlns:xlink="http://www.w3.org/1999/xlink" width="67" height="41" viewBox="0 0 67 41">
    <defs>
        <path id="a" d="M0 38.817h66.593V0H0z"/>
    </defs>
    <g fill="none" fill-rule="evenodd">
        <path fill="#FEFEFE" d="M37.093 18.427h.796l19.03 14.868h-3.383zM34.176 18.427h.662l15.317 14.868H47.04zM26.31 18.427h-.796L6.485 33.295h3.382zM29.228 18.427h-.663L13.25 33.295h3.116zM0 35.18v3.608h4.05v-.79H1.48v-.702h2.365v-.667H1.48v-.659h2.52v-.79zM9.883 35.18l.088 2.77h-.059l-1.589-2.77H5.824v3.608h1.48l-.09-2.77h.06l1.567 2.77h2.52v-3.607zM12.655 35.18v.837h1.419v2.771h1.478v-2.77h1.493v-.837zM18.353 35.18v3.608h4.05v-.79h-2.571v-.702h2.365v-.667h-2.365v-.659h2.52v-.79zM26.772 36.994c.636 0 .614-.154.614-.563 0-.322-.126-.413-.614-.413h-1.146v.976h1.146zm-2.624-1.814h2.853c1.28.016 1.907.193 1.907 1.092 0 .602 0 .953-1.05 1.111v.04c.607.013.999.23.999.64v.725h-1.478v-.504c.014-.27-.163-.454-.607-.454h-1.146v.958h-1.478V35.18zM32.966 37.028c.585-.014.666-.058.666-.524 0-.371-.09-.486-.666-.486h-1.012v1.01h1.012zm-2.49 1.76v-3.607h2.786c1.375 0 1.892.38 1.892 1.323 0 1.014-.347 1.36-1.892 1.36h-1.308v.924h-1.479zM39.183 36.994c.635 0 .613-.154.613-.563 0-.322-.126-.413-.613-.413h-1.146v.976h1.146zm-2.624-1.814h2.853c1.279.016 1.907.193 1.907 1.092 0 .602 0 .953-1.05 1.111v.04c.606.013.998.23.998.64v.725h-1.478v-.504c.015-.27-.163-.454-.606-.454h-1.146v.958h-1.478V35.18z"/>
        <mask id="b" fill="#fff">
            <use xlink:href="#a"/>
        </mask>
        <path fill="#FEFEFE" d="M42.916 38.787h1.478v-3.606h-1.478zM48.666 36.595c1.64.076 2.047.21 2.047 1.039 0 .596.037 1.183-2.402 1.183-1.412 0-2.35-.02-2.35-1.203h1.418c0 .375.207.414.932.414.694 0 .923-.029.923-.332 0-.312-.08-.308-.775-.337l-.326-.014c-1.367-.062-2.165-.058-2.165-1.092s.894-1.101 2.343-1.101c1.212 0 2.247.014 2.247 1.01v.149h-1.42c0-.37-.236-.37-.827-.37-.798 0-.865.106-.865.308 0 .288.214.298.606.317l.614.029zM53.766 36.628h2.365v.67h-2.365v.701h2.572v.789h-4.05V35.18h3.998v.79h-2.52zM60.64 36.595c1.64.076 2.047.21 2.047 1.039 0 .596.037 1.183-2.402 1.183-1.412 0-2.35-.02-2.35-1.203h1.418c0 .375.208.414.932.414.695 0 .924-.029.924-.332 0-.312-.081-.308-.776-.337l-.325-.014c-1.368-.062-2.166-.058-2.166-1.092s.894-1.101 2.343-1.101c1.212 0 2.247.014 2.247 1.01v.149h-1.42c0-.37-.236-.37-.827-.37-.798 0-.865.106-.865.308 0 .288.215.298.606.317l.614.029zM11.32 18.352H0v14.942L17.696 21.26c-.719-.044-7.298-4.017-6.376-2.908m1.546.715c.547.706 1.593.973 2.999 1.876L1.35 30.783V19.695h11.641M62.765 18.398H40.79l21.975 14.897V18.398zm-1.35 1.344v11.012L45.169 19.742h16.246z" mask="url(#b)"/>
        <path fill="#EAB020" d="M62.122 15.32l-5.08-.004 1.355-4.948-4.375-.005-1.042 3.58c-.217.849-.347 1.348-1.118 1.348l-4.628-.005 3.428-12.195 5.363.005-1.23 4.458 4.502.004L60.48 3.1l4.994.005-3.352 12.215zm-17-.045l-8.66-.009c-1.53 0-2.068-.363-2.075-1.13a2.96 2.96 0 0 1 .113-.752l1.016-3.785c-.002.007-.001.013-.002.02v.022c.008.533 1.223 2.149 2.93 2.2l3.308.004h.02s-.155-.14-4.837-3.562c-.611-.447-.8-.61-.806-.839a.9.9 0 0 1 .047-.272c.12-.42.158-.714.927-3.379.063-.264.297-.482 1.141-.481l9.133.008c.586 0 1.579-.026 1.59.764.003.142-.025.308-.094.506l-.597 2.13s-1.169-1.484-2.822-1.485l-3.1-.003.024.018a741.83 741.83 0 0 1 4.548 3.362c.522.4.58.774.577.932 0 .05-.007.078-.007.078l-1.285 4.49c-.217.618-.226 1.146-1.089 1.163zm-12.43.022l-5.071-.005.282-.896s-.67.534-1.674.93a6.047 6.047 0 0 1-.692.22 6.718 6.718 0 0 1-.282.066l-.145.028-.034.007a5.032 5.032 0 0 1-.298.047l-.078.008-.149.016-.038.003a13.3 13.3 0 0 1-.177.011l-.022.001-.03.001c-.05.002-.099.005-.15.006h-.082c-2.087-.055-4.168-1.014-3.6-3.256.545-2.164 2.138-8.67 2.253-9.144l.008-.028 4.548.007c.099 0 .18.01.248.027a.434.434 0 0 1 .218.114.282.282 0 0 1 .056.078.346.346 0 0 1 .034.175c-.003.116-.034.212-.034.212l-1.917 7.229h-.001s-.103.373-.153.577l-.003.02a.594.594 0 0 0-.021.19.763.763 0 0 0 .044.23c.07.204.238.403.572.476.93.201 1.788-.418 2.185-1.826a.855.855 0 0 0 .014-.056l.007-.015 1.375-4.87.72-2.558 2.711.002 2.71.004-.004.016-3.33 11.953zm-11.717 3.97a4.7 4.7 0 0 0 .34.456l.003.003c.03.036.06.072.093.108l.002.002a4.708 4.708 0 0 0 .31.325l.044.042-.014.007-.001.001a2.296 2.296 0 0 1-.206.087 4.898 4.898 0 0 1-.122.044c-.022.008-.045.017-.07.024-.024.008-.05.018-.075.025a4.965 4.965 0 0 1-.262.078 7.016 7.016 0 0 1-.932.178 6.858 6.858 0 0 1-1.396.027c-.229-.018-.47-.04-.72-.073a13.666 13.666 0 0 1-2.032-.412 10.358 10.358 0 0 1-1.462-.545 8.195 8.195 0 0 1-1.394-.822l-.02-.016a7.07 7.07 0 0 1-.632-.526c-1.25-1.168-2.06-2.463-2.188-4.358l-.001-.005a8.142 8.142 0 0 1-.01-.225v-.01c-.002-.01-.002-.019-.002-.03-.002-.046-.002-.094-.003-.142l-.001-.15v-.002-.025l.003-.211v-.014a10.897 10.897 0 0 1 .155-1.512l.04-.218c.04-.222.087-.45.14-.684h.001l5.082-.004h.001s1.016 0 2.088.896a4.456 4.456 0 0 1 .449.427c.06.065.118.132.177.204a5.577 5.577 0 0 1 .43.596 6.428 6.428 0 0 1 .325.577 7.64 7.64 0 0 1 .296.672 10.105 10.105 0 0 1 .403 1.315c.028.113.053.228.077.346l.06.295c.075.388.14.752.21 1.098l.028.13a9 9 0 0 0 .191.743 4.94 4.94 0 0 0 .594 1.279zM7.64 15.03l-.062.219-6.308-.007L5.243.958l3.198.004 3.208.003-.1.347L7.64 15.03zM13.217.961l1.46.001h.102l.426.001h.676a1515.493 1515.493 0 0 0 2.082.003h.736c.535 0 1.006.266 1.359.75.136.184.255.401.352.648.02.05.038.1.056.15.036.104.068.211.097.323.1.392.156.837.158 1.328a7.308 7.308 0 0 1-.049.882c-.021.191-.05.387-.085.588l-.008.036a8.576 8.576 0 0 1-.053.273l-.004.018c-.131.62-.293 1.12-.472 1.524-.767 1.576-2.199 2.127-2.707 2.181-.602.062-1.075.053-1.075.053l-5.506.004 1.227-4.382 1.228-4.38zm53.372 1.371l-6.764-.006-1.2 4.33-1.787-.002h-.893l1.002-3.463.252-.868-3.59-.003-3.592-.003-.302.92c-.142-.264-.408-.912-1.461-.923l-.105.001-18.38-.02-.155.423-.582 1.593c.001-.005.192-.65-.054-1.209-.172-.392-.561-.74-1.38-.796a3.33 3.33 0 0 0-.236-.009h-.002l-5.53-.005h-.28a4.315 4.315 0 0 0-.397-.855 3.432 3.432 0 0 0-.327-.453C20.013.04 19.03.016 18.964.015h-.004L12.574.008h-.008L7.062.002 4.594 0l-.366 1.312L.075 16.214l8.322.01.72-2.802.047.418.1.91.026.226c0 .01.128 1.06.907 2.308.258.414.609.881 1.08 1.352l.003.002c.04.04.082.082.125.122l.002.002.131.123.002.001c.226.206.477.412.755.614l.066.046c.056.055.15.118.27.184.675.444 1.492.854 2.48 1.181l.014.004.266.086.143.043c.044.012.087.026.13.04l.15.042.117.032.153.042c.035.01.07.02.106.028l.156.038c.032.01.065.016.097.024l.16.038.086.018c.054.013.109.024.162.035l.074.015.17.033a11.023 11.023 0 0 0 1.88.197h.028l.1.002h.077l.05-.002a6.69 6.69 0 0 0 .212-.005l.161-.008.045-.002c.053-.003.105-.008.157-.012l.044-.003.15-.015.045-.005.145-.018.043-.005.139-.021.045-.007.131-.023.046-.008.125-.025.045-.01.12-.027c.015-.004.03-.008.045-.01a3.121 3.121 0 0 0 .158-.042c.037-.01.073-.019.108-.03l.045-.013.103-.03.043-.015c.034-.01.066-.022.099-.033l.042-.015c.032-.01.064-.022.094-.034l.04-.014.092-.038.03-.01a4.591 4.591 0 0 0 1.37-.838c-.13-.09-.29-.216-.464-.378a5.039 5.039 0 0 1-.609-.682l-.045-.06c-.448-.625-.864-1.498-1.013-2.682l-.065-.517.187.09.286.134c.008.005.571.264 1.434.434l.004.001c.108.021.22.042.337.06h.005l.161.022.029.004.172.02h.001a13.652 13.652 0 0 0 .217.02l.144.008.047.002c.11.006.222.01.336.01h.053l.138-.005.036-.002.113-.007c.007 0 .014 0 .022-.002.043-.002.086-.006.128-.012.011 0 .021-.002.032-.004l.1-.012a5.51 5.51 0 0 0 .149-.023l.023-.005c.032-.005.064-.012.095-.018l.031-.006a2.618 2.618 0 0 0 .116-.026l.1-.025.029-.008.084-.023a8.33 8.33 0 0 0 .11-.033l.024-.007.07-.024.02-.007.083-.029.015-.006c.022-.008.044-.015.064-.024l.018-.007.07-.028h.002l.062-.027.014-.006.053-.024h.002c.124-.057.193-.096.195-.098l.067-.04 9.126.006h.496l7.718.004H43.814l5.215.006 2.014.002h1.118c.14 0 .269-.03.39-.085.561-.252.937-1.008 1.113-1.54a3.57 3.57 0 0 0 .068-.233l.051-.172.887-3.014 2.572.002-1.383 5.045 5.368.005 1.477.002 3.889-13.954h-.004z" mask="url(#b)"/>
    </g>
</svg>
