<svg xmlns="http://www.w3.org/2000/svg" width="91" height="32" viewBox="0 0 91 32">
    <g fill="#EEB111" fill-rule="evenodd">
        <path d="M7.805 9.43c1.324 0 2.339-.259 2.593-.373.197-.144.282-.344.282-.745 0-2.78-2.058-4.615-4.594-4.615C2.986 3.697 0 6.45 0 10.576c0 3.726 2.452 6.248 5.89 6.248.872 0 2.394-.401 3.014-.745.338-.258 1.212-1.29 1.38-1.978l-.056-.114c-.507.286-1.324.917-2.254 1.691a3.696 3.696 0 0 1-.788.086c-2.678 0-4.819-2.064-4.79-5.704 0-.2 0-.4.056-.63h5.353zm-5.382-.66c.057-1.29.986-4.557 3.494-4.557 1.775 0 2.48 2.035 2.48 3.525 0 .46-.084.89-.169 1.033H2.423zm12.624-3.955l.084-.83c-.62.028-1.098.085-1.747.085-.845 0-1.718-.057-2.62-.086l-.029.115c.846.4 1.522.687 2.03.974.45.66 1.296 2.178 3.014 5.417-1.409 2.293-1.944 3.095-2.762 4.27-.28.373-.534.574-.986.775l-1.662.86v.114c.789-.029 1.662-.086 2.565-.086a23.6 23.6 0 0 1 1.69.086l.113-.115c-.423-.459-.733-.716-.93-1.089.591-1.204 1.014-1.977 2.254-4.184h.057c1.662 3.152 2.254 4.356 2.732 5.474 1.381 0 3.438-.143 4.34-.143l.085-.087-1.945-.86c-.31-.114-.591-.43-.93-.973-.506-.861-2.056-3.583-3.014-5.418 1.155-1.805 1.633-2.58 2.508-3.755.788-.4 1.577-.716 2.817-1.26l.028-.115c-1.014.029-1.86.086-2.677.086-.366 0-.76-.057-1.212-.086.028.43.028.774-.028 1.233-.337.83-1.099 2.235-1.69 3.296h-.057l-2.028-3.698zM26.6 3.611c-.818.086-3.129.66-3.55.831l-.114.115 1.494.888v8.111c0 3.812-.084 7.051-.113 8.628l-1.55.974-.056.115c.901-.029 1.803-.086 2.705-.086 1.24 0 2.48.057 3.775.086l.113-.115-2.591-1.06c-.057-2.121-.113-4.643-.113-6.163l.056-.028c.732.43 1.916.917 2.282.917 2.649 0 6.791-2.149 6.791-7.194 0-4.013-3.015-5.904-5.185-5.904-.93 0-2.057.63-4 1.92h-.057l.113-2.035zm0 2.58c1.042-.86 2.113-1.146 2.732-1.146 2.565 0 4.002 2.493 4.002 5.043 0 3.784-2.226 5.762-4.593 5.762-.873 0-1.663-.23-2.141-.516V6.19zM44.66 9.43c1.325 0 2.339-.259 2.593-.373.197-.144.282-.344.282-.745 0-2.78-2.057-4.615-4.593-4.615-3.1 0-6.087 2.752-6.087 6.879 0 3.726 2.452 6.248 5.89 6.248.873 0 2.395-.401 3.015-.745.338-.258 1.21-1.29 1.38-1.978l-.056-.114c-.507.286-1.324.917-2.255 1.691a3.682 3.682 0 0 1-.788.086c-2.677 0-4.819-2.064-4.79-5.704 0-.2 0-.4.056-.63h5.353zm-5.381-.66c.056-1.29.986-4.557 3.494-4.557 1.775 0 2.48 2.035 2.48 3.525 0 .46-.085.89-.17 1.033H39.28zm9.383 1.605c0 4.815 3.775 6.45 6.368 6.45.817 0 2.113-.287 2.564-.46.423-.286 1.466-1.634 1.662-2.321l-.027-.086c-.508.258-1.268.802-2.367 1.777a3.076 3.076 0 0 1-.79.115c-2.986 0-5.015-2.494-5.015-5.733 0-2.923 1.55-5.79 4.93-5.79.593 0 .96.058 1.184.173.31 1.519.649 2.665.901 3.18l.113-.056c.395-.745.79-2.064.987-2.895-.423-.373-1.916-1.032-3.494-1.032-3.41 0-7.016 2.15-7.016 6.65v.028zM63.623 4.07L63.736 0c-.366 0-1.183.488-1.464.946a25.124 25.124 0 0 0-.818 3.124h-1.437l-.394.573 1.803.373v7.595c0 1.806.14 2.436.62 3.067.563.687 1.52 1.146 2.536 1.146 1.38 0 2.507-.66 3.1-1.548l.056-.459-.085-.028c-.451.315-1.212.717-2.17.717-.704 0-1.126-.2-1.437-.43-.14-.144-.423-.544-.423-.917V5.016l3.72-.373.423-.573h-4.143zM34.602 24.788c0 2.726-.028 5.367-.112 5.863l-1.547.963-.028.11c.619-.027 1.772-.082 2.615-.082 1.237 0 2.305.055 2.896.083l.056-.11-1.603-.909c-.112-.826-.112-5.01-.112-8.56.843-.715 2.024-1.376 2.924-1.376 2.165 0 2.699 1.706 2.699 3.028 0 2.45-.028 5.146-.113 6.853l-1.321.963-.056.11c.731-.027 1.687-.082 2.586-.082.844 0 1.856.055 2.587.083l.084-.11-1.574-.909v-6.055c0-1.046-.085-1.982-.17-2.423 1.042-.99 2.026-1.458 3.178-1.458 2.221 0 2.614 1.954 2.614 3.22.029 3.358-.083 5.56-.167 6.634l-1.181.99-.028.11c.702-.027 1.601-.082 2.417-.082 1.04 0 2.053.055 3.065.083v-.11l-1.378-.743c-.338-.193-.534-.386-.534-.551v-6.937c0-2.422-1.434-3.99-3.627-3.99-1.265 0-2.446.633-4.498 2.284-.535-1.459-1.744-2.284-3.262-2.284-1.18 0-2.558.88-4.33 2.257h-.028l.113-2.257c-.843.027-2.924.715-3.514.963l-.057.138 1.406.605v3.688zm26.175-5.394c-2.897 0-6.214 2.422-6.214 6.468 0 3.881 3.121 6.138 6.13 6.138 3.542 0 6.27-2.532 6.27-6.414 0-3.632-2.756-6.192-6.158-6.192h-.028zm.028.467c2.446 0 3.655 3.386 3.655 5.973 0 2.533-.872 5.698-3.43 5.698-2.53 0-3.965-3.22-3.965-5.973 0-2.422 1.04-5.698 3.712-5.698h.028zm7.225.524l1.377.908c0 1.514 0 4.927-.224 9.413l-1.603.908v.11a65.592 65.592 0 0 1 2.615-.082c1.743 0 3.205.055 3.992.083v-.11l-2.614-.881v-7.487c.73-1.624 1.686-2.614 2.642-2.614.225 0 .31.027.394.055.394.99.73 1.623.956 1.954l.14-.083c.45-.99.815-2.367.844-2.863-.226-.164-.59-.302-1.097-.302-.956 0-2.698.66-3.907 2.862h-.028c0-1.018-.141-2.477-.282-2.862-.731.027-2.699.715-3.12.88l-.085.11zm16.195 4.514c1.321 0 2.333-.248 2.586-.359.197-.137.28-.33.28-.715 0-2.67-2.051-4.431-4.582-4.431-3.092 0-6.072 2.642-6.072 6.606 0 3.578 2.446 6 5.876 6 .871 0 2.39-.386 3.008-.716.338-.248 1.209-1.239 1.378-1.9l-.057-.11c-.506.276-1.321.881-2.249 1.625a3.828 3.828 0 0 1-.788.083c-2.67 0-4.806-1.983-4.778-5.478 0-.192 0-.385.056-.605h5.342zm-5.37-.634c.056-1.238.984-4.376 3.486-4.376 1.771 0 2.473 1.955 2.473 3.385 0 .441-.083.854-.167.991h-5.792zm10.71 4.624c-.448.248-1.04.882-1.404 1.432l-.056.22c.224.467.787 1.184 1.292 1.459l.169-.055c.394-.22 1.18-.99 1.378-1.432l.056-.22c-.225-.522-.928-1.321-1.293-1.459l-.141.055z"/>
    </g>
</svg>
