<svg xmlns="http://www.w3.org/2000/svg" xmlns:xlink="http://www.w3.org/1999/xlink" width="86" height="40" viewBox="0 0 86 40">
    <defs>
        <path id="a" d="M0 39.973h86.234V0H0z"/>
    </defs>
    <g fill="none" fill-rule="evenodd">
        <path fill="#EBB01F" d="M2.675 37.322h40.397S3.068 3.002 2.675 2.654v34.668zM83.56 37.322V2.654L43.073 37.322z"/>
        <path fill="#000205" d="M83.56 37.322H2.676V2.654c.393.348 40.397 34.668 40.397 34.668L83.56 2.654v34.668zM.647.634v38.709H85.59V.634H.645zM85.626 2.654v36.689V.634v.068"/>
        <mask id="b" fill="#fff">
            <use xlink:href="#a"/>
        </mask>
        <path fill="#EA2227" d="M9.96 33.56h66.06v-9.914H9.96z" mask="url(#b)"/>
        <path fill="#000205" d="M9.96 33.56h66.06v-9.914H9.96v9.914zm-.578.575h67.217V23.07H9.382v11.065zM73.68 18.311h.5l-.001 1.51h.186l.001-1.509h.5v-.157H73.68zM76.307 18.157l-.42 1.347h-.006l-.426-1.348h-.287l-.001 1.666h.167V18.3h.008l.47 1.523h.143l.47-1.522h.007l-.002 1.523h.167l.002-1.666z" mask="url(#b)"/>
        <path fill="#FEFEFE" d="M0 39.974h86.234V0H0v39.974zm.804-.774h84.392V.8H.804v38.4z" mask="url(#b)"/>
        <path fill="#000205" d="M71.41 18.232l-5.007-.006 1.335-4.854-4.31-.004L62.4 16.88c-.214.832-.342 1.323-1.102 1.323l-4.562-.004 3.379-11.965 5.286.004-1.212 4.374 4.437.003 1.167-4.373 4.922.005-3.304 11.985zm-16.755-.047l-8.536-.006c-1.507-.002-2.039-.358-2.045-1.11-.002-.214.038-.459.11-.738l1.002-3.714v.021l-.001.02c.008.524 1.205 2.11 2.887 2.16l3.261.003h.021s-.154-.137-4.768-3.493c-.603-.44-.79-.599-.795-.824a.871.871 0 0 1 .046-.266c.12-.415.156-.702.914-3.317.063-.257.293-.473 1.125-.472l9.001.008c.578.001 1.556-.025 1.569.751.001.139-.027.302-.094.496l-.589 2.09s-1.152-1.455-2.78-1.457l-3.055-.003.023.016c.319.234 3.947 2.891 4.481 3.298.515.395.572.761.57.916 0 .05-.008.077-.008.077l-1.266 4.403c-.215.608-.223 1.127-1.073 1.141zm-12.251.024l-5-.005h.001l.278-.88s-.66.524-1.65.912a5.78 5.78 0 0 1-.96.28c-.047.01-.095.02-.143.028l-.032.008a2.745 2.745 0 0 1-.187.03c-.035.006-.071.01-.108.015l-.077.01c-.048.005-.097.01-.147.013l-.037.004c-.057.004-.116.01-.174.012h-.023l-.028.002-.149.005h-.081c-2.056-.055-4.107-.995-3.549-3.195.538-2.123 2.108-8.506 2.222-8.97l.007-.029 4.484.007c.097 0 .177.01.243.026a.563.563 0 0 1 .162.068.367.367 0 0 1 .109.122.274.274 0 0 1 .02.054c.012.04.015.08.014.118-.003.112-.035.207-.035.207l-1.89 7.093s-.1.365-.15.566l-.004.018v.001a.585.585 0 0 0-.02.186.78.78 0 0 0 .043.228c.07.2.235.394.564.465.917.199 1.762-.41 2.153-1.792a.662.662 0 0 0 .015-.053l.006-.016 1.355-4.778.71-2.51 2.673.004 2.671.002-.005.016-3.28 11.728h-.001zm-11.55 3.895a5.192 5.192 0 0 0 .335.446l.003.002a3.777 3.777 0 0 0 .241.268c.051.054.104.106.16.16l.042.041v.001l-.013.007-.002.001a3.651 3.651 0 0 1-.391.151l-.074.026a6.191 6.191 0 0 1-1.177.25 6.725 6.725 0 0 1-1.207.038l-.17-.011c-.226-.017-.463-.041-.709-.072l-.249-.033a13.741 13.741 0 0 1-1.394-.274 10.49 10.49 0 0 1-1.8-.632 8.174 8.174 0 0 1-1.374-.806c-.008-.005-.014-.011-.021-.017a7.212 7.212 0 0 1-.623-.514c-1.232-1.148-2.03-2.418-2.156-4.277l-.001-.006a6.223 6.223 0 0 1-.01-.22v-.01a.31.31 0 0 1-.002-.028l-.003-.14-.001-.148v-.026c0-.068.001-.137.004-.206v-.015a10.408 10.408 0 0 1 .064-.862c.008-.066.016-.134.026-.202a13.843 13.843 0 0 1 .24-1.304l5.01-.004s1.001 0 2.059.88a4.192 4.192 0 0 1 .441.418c.059.063.117.13.175.2.03.034.058.07.087.106.058.074.114.15.171.23a6.892 6.892 0 0 1 .408.665c.027.05.053.098.078.15a7.392 7.392 0 0 1 .293.66 9.547 9.547 0 0 1 .397 1.29 13.214 13.214 0 0 1 .133.629c.074.38.138.736.209 1.076l.027.127c.046.21.095.413.153.612.01.04.023.08.035.118.025.08.05.158.079.234a4.62 4.62 0 0 0 .507 1.021zm-13.143-4.159l-.06.214-6.219-.007 3.917-14.01 3.152.002 3.161.004-.098.34-3.853 13.457zm5.497-13.801l1.44.001h.1l.42.001h.665l1.66.002h1.118c.527 0 .992.262 1.34.734a2.895 2.895 0 0 1 .401.786c.036.101.068.207.096.316.098.385.154.821.156 1.301a6.924 6.924 0 0 1-.048.867c-.021.188-.048.38-.085.576-.001.013-.004.024-.006.036-.017.092-.035.181-.053.268l-.004.017a7.569 7.569 0 0 1-.465 1.496c-.756 1.546-2.167 2.087-2.668 2.139-.593.062-1.06.053-1.06.053l-5.427.004 1.21-4.299 1.21-4.298zm52.606 1.344l-6.667-.006-1.182 4.249-1.763-.002h-.88l.988-3.398.248-.85-3.538-.004-3.54-.003-.298.903c-.14-.26-.402-.896-1.44-.905h-.103l-18.117-.021-.152.416-.574 1.563c.001-.006.189-.638-.053-1.185-.17-.385-.553-.729-1.361-.783a3.068 3.068 0 0 0-.232-.009h-.003l-5.45-.005h-.276a4.222 4.222 0 0 0-.391-.837 3.369 3.369 0 0 0-.322-.445c-.802-.926-1.77-.95-1.836-.951h-.004l-6.293-.006h-.008l-5.426-.005-2.433-.004-.36 1.288-4.093 14.62 8.202.008.71-2.747.046.41.1.892.024.222c.001.01.127 1.04.894 2.264.255.407.6.864 1.066 1.327l.001.001.124.121s.002 0 .003.002c.041.04.085.079.128.12l.002.001c.223.203.47.405.744.602.726.521 1.636 1.01 2.776 1.384l.014.005.263.084.14.043.128.037c.05.016.099.03.147.042l.116.033.15.04.105.027.154.04.096.022.156.036.086.02c.053.01.107.023.16.034l.073.014c.056.012.112.023.168.032l.023.005c.672.123 1.28.182 1.83.19h.201c.017 0 .033 0 .049-.002l.163-.002.046-.002a9.62 9.62 0 0 0 .16-.008l.044-.002c.052-.003.104-.007.154-.012.015 0 .03-.003.044-.003l.149-.014.043-.005a7.74 7.74 0 0 0 .143-.018c.014-.003.028-.003.043-.005l.136-.02.044-.008c.044-.006.087-.014.13-.022l.045-.01c.04-.006.083-.014.123-.022a5.046 5.046 0 0 0 .318-.076l.045-.01c.036-.01.072-.022.106-.03.015-.005.03-.01.044-.013l.102-.031.043-.015a1.7 1.7 0 0 0 .097-.032l.041-.013c.032-.012.063-.024.094-.034l.039-.015c.031-.012.061-.023.09-.036a.419.419 0 0 1 .03-.01c.676-.275 1.114-.607 1.35-.823a4.339 4.339 0 0 1-.457-.37 4.875 4.875 0 0 1-.6-.67l-.044-.058c-.441-.613-.852-1.47-.998-2.632l-.065-.507.184.087.282.134c.008.003.563.258 1.413.426a8.092 8.092 0 0 0 .336.058h.005c.052.009.106.016.16.022l.027.004c.056.008.113.014.17.02l.178.016.037.002.141.01.047.002c.108.006.22.008.332.008h.052a3.713 3.713 0 0 0 .305-.014l.126-.012.031-.004.098-.012.03-.004.117-.019.024-.005c.03-.005.062-.01.093-.018l.03-.006a2.163 2.163 0 0 0 .115-.025c.033-.008.066-.015.098-.024l.028-.007c.029-.01.057-.016.084-.024a.094.094 0 0 1 .016-.004l.093-.028.022-.007c.024-.009.047-.017.07-.023l.02-.007.08-.028.017-.006a1.005 1.005 0 0 1 .08-.03l.069-.028h.002c.021-.01.042-.02.062-.027l.012-.005a.813.813 0 0 0 .053-.025h.002c.122-.055.19-.095.192-.097l.066-.038 8.995.005h.49l7.607.006h.038l5.14.005 1.985.001 1.031.001h.072c.137 0 .265-.03.384-.085.553-.246.924-.987 1.096-1.508.029-.084.051-.161.068-.23l.05-.17.874-2.956 2.535.002-1.362 4.95 5.29.005 1.456.002 3.834-13.691h-.004z" mask="url(#b)"/>
        <path fill="#FEFEFE" d="M71.984 19.179l-1.455-.002-5.292-.005 1.363-4.949-2.535-.002-.873 2.955-.051.17c-.017.069-.04.146-.068.23-.172.52-.543 1.261-1.096 1.509a.93.93 0 0 1-.384.083H60.49l-1.986-.002-5.14-.004h-.039l-7.608-.005h-.488l-8.995-.006-.066.04c-.002 0-.07.039-.192.096h-.002l-.053.024-.013.005c-.02.009-.04.016-.06.026l-.003.001a3.18 3.18 0 0 1-.088.035l-.062.022-.016.007c-.025.01-.052.019-.08.028l-.02.007a1.435 1.435 0 0 1-.07.022l-.023.008c-.03.01-.06.019-.092.027l-.017.006-.083.022-.028.007c-.032.01-.065.017-.099.025l-.006.002c-.035.007-.07.016-.108.023a.343.343 0 0 1-.03.007c-.03.005-.062.01-.094.018a2.759 2.759 0 0 1-.14.022l-.03.004a3.633 3.633 0 0 1-.098.013l-.031.004a2.14 2.14 0 0 1-.127.011l-.022.002-.11.008c-.013 0-.025 0-.037.002l-.135.003h-.052c-.113 0-.224-.003-.332-.008l-.047-.003-.141-.008-.037-.003-.177-.016h-.001a9.992 9.992 0 0 1-.17-.02c-.01 0-.019-.002-.028-.003l-.159-.022-.005-.001a7.1 7.1 0 0 1-.332-.059h-.004a6.874 6.874 0 0 1-1.413-.425l-.283-.134-.183-.086.064.505c.147 1.163.557 2.02.999 2.632l.044.06.02.027c.196.259.396.473.58.643.172.158.33.28.456.37-.235.215-.673.548-1.35.821l-.028.011-.091.036-.04.015-.093.033-.042.015-.096.032-.043.013a1.353 1.353 0 0 1-.102.03.933.933 0 0 1-.044.014l-.106.03a3.492 3.492 0 0 1-.156.04l-.045.01c-.038.01-.078.019-.117.027l-.045.009a3.08 3.08 0 0 1-.124.025c-.015.003-.029.006-.044.007a5.451 5.451 0 0 1-.13.024l-.044.007-.136.02-.044.005c-.047.007-.094.012-.142.017l-.044.006-.148.014-.044.003a9.99 9.99 0 0 1-.154.01l-.045.005-.16.007c-.014 0-.03 0-.045.002l-.164.004h-.048a2.33 2.33 0 0 1-.174 0h-.027a10.805 10.805 0 0 1-1.83-.19c-.008 0-.016-.002-.024-.004l-.167-.033-.073-.014-.16-.035-.086-.018-.156-.037a2.089 2.089 0 0 1-.096-.024l-.154-.037-.105-.028c-.05-.012-.1-.026-.151-.04l-.115-.032-.147-.042-.129-.038c-.046-.016-.093-.028-.14-.044a14.05 14.05 0 0 1-.276-.087c-1.14-.375-2.05-.862-2.776-1.385-.274-.198-.52-.4-.744-.602h-.002a9.498 9.498 0 0 1-.13-.12l-.001-.003-.124-.12-.001-.002a7.448 7.448 0 0 1-1.066-1.326c-.767-1.226-.893-2.255-.895-2.264l-.024-.223-.1-.892-.045-.41-.71 2.748-8.202-.009 4.093-14.62.36-1.288 2.433.003 5.426.007h.008l6.292.005h.005c.065.001 1.034.024 1.836.95.111.13.22.278.322.446.145.237.279.513.39.838h.277l5.45.006h.003c.08 0 .157.002.231.007.809.055 1.191.398 1.362.783.242.548.054 1.18.053 1.184l.574-1.562.152-.416 18.116.021h.103c1.039.01 1.3.646 1.44.905l.298-.903 3.54.003 3.54.003-.25.85-.988 3.398h.881l1.763.002 1.182-4.247 6.666.006h.004l-3.833 13.69zm4.683-14.332l-.85-.001-6.67-.006h-.49l-.132.47-1.05 3.778-1.294-.001.997-3.427.24-.821-.859-.002-7.08-.006-.466-.001-.109.328c-.304-.185-.6-.329-1.266-.329h-.03l-18.086-.02h-.451l-.156.422-.045.122c-.405-.358-.98-.54-1.71-.542h-.012l-5.287-.004c-.983-2.208-2.906-2.234-2.993-2.234l-6.293-.007h-.008l-7.858-.008h-.49l-.133.47-4.453 15.907-.228.816h.85l8.201.008.501.001.117-.453c.144.356.341.763.609 1.19.763 1.22 2.283 2.872 5.19 3.829 1.485.489 2.877.736 4.137.736 2.456 0 3.827-.915 4.426-1.462l.591-.539-.656-.46c-.417-.291-1.347-1.1-1.72-2.677a8.38 8.38 0 0 0 2.497.397h.057a5.118 5.118 0 0 0 2.198-.526l16.938.008h.023l8.157.008.071.001c1.251 0 1.952-1.437 2.172-2.297l.783-2.652 1.207.001-1.14 4.138-.223.813h.846l6.747.006h.49l.133-.47 3.832-13.69.228-.814z" mask="url(#b)"/>
        <path fill="#FEFEFE" d="M21.662 4.147L18.5 4.144l-3.151-.003-3.916 14.012 6.217.007.062-.216 3.853-13.456zM20.257 16.28v.026c0-.076.002-.153.004-.232a5.97 5.97 0 0 0-.004.207M20.326 15.197c.008-.067.016-.134.026-.202a14.188 14.188 0 0 1 .24-1.303 15.635 15.635 0 0 0-.24 1.303l-.027.202a10.502 10.502 0 0 0 .001 0M20.263 16.633l.01.22.002.006v-.006a6.392 6.392 0 0 1-.012-.22M26.216 12.737s.466.009 1.059-.053c.5-.052 1.912-.593 2.668-2.139.176-.397.336-.888.465-1.495l.004-.018c.018-.087.036-.176.053-.268.002-.012.005-.023.006-.036a8.078 8.078 0 0 0 .133-1.442 5.392 5.392 0 0 0-.156-1.302 4.175 4.175 0 0 0-.15-.464 2.835 2.835 0 0 0-.347-.636c-.348-.474-.813-.736-1.34-.736H27.494l-1.66-.001-.225-.001h-.96l-1.44-.002-1.21 4.298-1.21 4.3 5.428-.005zM68.626 10.616l-4.436-.005 1.21-4.373-5.285-.005-3.378 11.965 4.56.004c.76 0 .889-.49 1.103-1.324l1.027-3.51 4.312.004-1.335 4.855 5.006.005 3.305-11.986-4.923-.004-1.166 4.374zM57.002 12.564c.002-.155-.055-.521-.57-.916-.534-.408-4.163-3.064-4.482-3.297l-.022-.017s1.425.002 3.054.002c1.63.002 2.781 1.458 2.781 1.458l.59-2.09c.067-.194.094-.358.092-.496-.012-.776-.99-.75-1.568-.75l-9.002-.009c-.831 0-1.061.214-1.123.473-.759 2.614-.796 2.9-.915 3.316a.875.875 0 0 0-.047.266c.006.224.193.384.795.824 4.615 3.356 4.769 3.494 4.769 3.494h-.02l-3.262-.004c-1.682-.05-2.88-1.637-2.888-2.158l.001-.023.001-.019-1.001 3.713a2.93 2.93 0 0 0-.111.738c.006.753.537 1.108 2.044 1.11 1.28 0 7.758.006 8.537.007.85-.015.858-.534 1.073-1.142l1.266-4.404s.007-.027.008-.076" mask="url(#b)"/>
        <path fill="#FEFEFE" d="M30.536 21.543a5.106 5.106 0 0 1-.267-.693l-.037-.12a9.158 9.158 0 0 1-.152-.61l-.027-.127c-.07-.34-.134-.698-.209-1.077a11.272 11.272 0 0 0-.397-1.554 9.77 9.77 0 0 0-.133-.367l-.07-.173a7.615 7.615 0 0 0-.223-.485c-.025-.051-.051-.1-.077-.15a6.476 6.476 0 0 0-.41-.665 4.86 4.86 0 0 0-.257-.336 4.847 4.847 0 0 0-.616-.619c-1.058-.879-2.059-.879-2.059-.879l-5.01.004c-.053.23-.099.454-.139.67l-.037.216c-.025.141-.045.28-.064.417l-.026.202a11.36 11.36 0 0 0-.065.862v.015a7.46 7.46 0 0 0-.003.232c0 .05 0 .099.002.149 0 .047 0 .094.002.139v.03l.002.009c.002.074.005.149.01.22v.006c.127 1.86.926 3.13 2.156 4.276.2.187.41.357.624.516l.021.016a8.04 8.04 0 0 0 1.73.961 10.265 10.265 0 0 0 1.444.477c.12.03.239.058.357.085a12.802 12.802 0 0 0 1.038.189c.083.012.166.022.248.032a14.668 14.668 0 0 0 .878.083 6.559 6.559 0 0 0 1.467-.073 6.347 6.347 0 0 0 .917-.215l.075-.024.068-.024c.045-.015.084-.03.12-.043.056-.023.1-.04.136-.056l.067-.03.002-.002.013-.004v-.001c-.015-.014-.028-.029-.043-.042-.054-.054-.107-.106-.159-.16-.05-.053-.1-.105-.147-.16h-.002a2.824 2.824 0 0 1-.092-.107l-.002-.002a4.42 4.42 0 0 1-.178-.224 4.358 4.358 0 0 1-.476-.784M45.69 6.464l-2.672-.002-2.672-.002-.71 2.51-1.355 4.778-.006.014a.68.68 0 0 1-.015.054c-.391 1.382-1.236 1.99-2.153 1.793-.33-.072-.494-.266-.564-.466a.78.78 0 0 1-.044-.228.596.596 0 0 1 .021-.187l.003-.017c.05-.2.15-.567.15-.567h.001l1.89-7.093s.031-.095.035-.207a.398.398 0 0 0-.035-.172.335.335 0 0 0-.054-.077.388.388 0 0 0-.126-.083.506.506 0 0 0-.09-.03 1.007 1.007 0 0 0-.244-.025l-4.484-.007-.006.028c-.114.464-1.684 6.847-2.222 8.97-.558 2.2 1.492 3.141 3.549 3.196h.081l.149-.007h.028l.022-.001a5.97 5.97 0 0 0 .175-.012l.037-.004a2.86 2.86 0 0 0 .147-.014c.026-.002.051-.006.076-.01a4.011 4.011 0 0 0 .295-.044l.032-.007.144-.029a7.022 7.022 0 0 0 .543-.138c.145-.044.284-.092.417-.142.99-.388 1.65-.91 1.65-.91v-.002l-.278.879 4.998.006h.001l3.281-11.728.005-.017zM21.51 26.62h-1.265v4.909h-1.167V26.62h-1.265v-.972h3.697zM23.667 28.218c.281 0 .498-.067.649-.201.15-.135.227-.361.227-.681 0-.542-.27-.814-.81-.814h-.552v1.696h.486zm.503-2.57c.487 0 .864.125 1.135.376.27.249.405.63.405 1.14 0 .395-.078.718-.234.968-.157.25-.4.41-.73.482v.016c.291.044.505.14.64.288.135.148.219.387.252.717.01.11.018.229.024.358l.016.433c.01.312.027.552.048.716.033.164.103.277.212.337v.05h-1.265a.639.639 0 0 1-.114-.284 3.374 3.374 0 0 1-.033-.334l-.032-1.128c-.011-.23-.067-.413-.17-.545-.103-.13-.276-.196-.52-.196h-.623v2.487h-1.168v-5.88h2.157zM27.778 29.75c0 .148.01.284.028.408.02.123.054.23.106.32.05.09.122.162.21.216.09.05.202.076.337.076.14 0 .254-.025.34-.076a.591.591 0 0 0 .207-.216.933.933 0 0 0 .106-.32c.019-.124.028-.26.028-.408v-4.101h1.168v4.1c0 .375-.051.684-.154.927-.103.246-.24.438-.414.582-.173.142-.37.238-.592.287-.221.05-.451.075-.69.075-.237 0-.466-.022-.688-.066a1.396 1.396 0 0 1-.592-.268 1.372 1.372 0 0 1-.414-.573c-.102-.247-.154-.568-.154-.963v-4.101h1.168v4.1zM33.368 26.699c-.1-.195-.282-.292-.547-.292a.539.539 0 0 0-.36.12c-.096.078-.17.208-.223.386a3.304 3.304 0 0 0-.115.7c-.021.288-.032.641-.032 1.058 0 .445.016.805.045 1.078.03.275.076.488.138.64.062.15.14.251.235.304a.667.667 0 0 0 .328.078.746.746 0 0 0 .288-.055.482.482 0 0 0 .231-.212c.066-.108.116-.259.155-.454.038-.194.056-.451.056-.77h1.168c0 .319-.024.621-.073.906a2.057 2.057 0 0 1-.272.75c-.133.213-.32.38-.56.502-.24.12-.552.182-.936.182-.438 0-.787-.072-1.046-.215a1.434 1.434 0 0 1-.596-.617 2.738 2.738 0 0 1-.267-.964c-.04-.374-.061-.785-.061-1.236 0-.444.02-.854.06-1.23.04-.377.13-.7.268-.968.138-.269.337-.48.596-.63.26-.15.608-.227 1.046-.227.417 0 .745.07.986.207.24.136.42.31.538.522.12.212.194.44.224.684a5.7 5.7 0 0 1 .044.687h-1.167c0-.428-.05-.739-.15-.934M36.567 28.004h.016l1.476-2.355h1.265l-1.573 2.52 1.752 3.36h-1.314l-1.192-2.413-.43.668v1.744H35.4V25.65h1.167zM41.7 25.649h1.168v4.908h2.067v.972H41.7zM48.689 26.62H46.62v1.384h1.947v.971H46.62v1.583h2.15v.97h-3.317v-5.88h3.235zM51.77 29.314l-.56-2.644h-.015l-.56 2.644h1.135zm.154-3.665l1.532 5.88H52.24l-.267-1.243h-1.541l-.267 1.243h-1.217l1.533-5.88h1.443zM54.803 29.865c0 .138.01.263.032.375a.658.658 0 0 0 .122.284c.06.077.139.137.239.181.1.044.225.066.377.066a.74.74 0 0 0 .483-.177c.143-.118.214-.3.214-.548a.99.99 0 0 0-.053-.342.668.668 0 0 0-.174-.259 1.241 1.241 0 0 0-.32-.21 4.674 4.674 0 0 0-.49-.193 4.157 4.157 0 0 1-.674-.289 1.815 1.815 0 0 1-.474-.366 1.316 1.316 0 0 1-.28-.486 2.077 2.077 0 0 1-.09-.638c0-.58.16-1.015.48-1.302.318-.285.756-.428 1.313-.428.26 0 .499.03.717.087a1.5 1.5 0 0 1 .568.28c.16.13.284.294.373.494.09.2.134.44.134.72v.166H56.18c0-.28-.049-.496-.146-.647-.098-.15-.26-.227-.487-.227-.129 0-.237.02-.323.058a.545.545 0 0 0-.208.152.532.532 0 0 0-.105.219 1.16 1.16 0 0 0-.028.255c0 .18.038.334.113.457.076.124.238.237.486.341l.9.396c.222.099.403.202.544.31a1.5 1.5 0 0 1 .337.345c.083.123.141.26.174.407.032.149.048.314.048.494 0 .621-.177 1.072-.531 1.356-.354.282-.847.424-1.48.424-.659 0-1.13-.146-1.414-.437-.284-.291-.426-.708-.426-1.252v-.239h1.168v.173zM58.127 31.529h1.168v-5.88h-1.168zM62.919 29.676h.016V25.65h1.07v5.88h-1.33L61.25 27.41h-.016v4.117h-1.071V25.65h1.346zM67.35 27.057a1.116 1.116 0 0 0-.117-.317.765.765 0 0 0-.208-.238.489.489 0 0 0-.304-.095c-.28 0-.483.16-.607.477-.125.32-.187.846-.187 1.582 0 .35.01.67.033.954a3.8 3.8 0 0 0 .117.73c.057.2.138.354.243.46a.55.55 0 0 0 .641.104.759.759 0 0 0 .235-.174.904.904 0 0 0 .182-.292c.05-.117.073-.256.073-.415v-.601h-.77v-.873h1.89v3.17h-.86v-.544h-.016c-.14.23-.31.394-.507.49a1.595 1.595 0 0 1-.71.144c-.356 0-.647-.063-.871-.189a1.289 1.289 0 0 1-.528-.585 3.028 3.028 0 0 1-.255-.975 12.453 12.453 0 0 1-.064-1.348c0-.492.03-.926.093-1.3.062-.374.169-.684.32-.935.15-.25.35-.438.6-.565.248-.124.56-.188.932-.188.638 0 1.097.16 1.379.481.281.322.42.782.42 1.38h-1.118c0-.11-.012-.222-.036-.338" mask="url(#b)"/>
    </g>
</svg>
